<svg xmlns="http://www.w3.org/2000/svg" viewBox="0 0 576 512" width="32" height="32">
  <!-- Plane icon matching Font Awesome fa-plane style -->
  <path fill="white" d="M482.3 192c34.2 0 93.7 29 93.7 64c0 36-59.5 64-93.7 64H365.7L265.2 495.9c-5.7 10-16.3 16.1-27.8 16.1l-56.2 0c-10.6 0-18.3-10.2-15.4-20.4l49-171.6L112 320 68.8 377.6c-3 4-7.8 6.4-12.8 6.4l-42 0c-7.8 0-14-6.3-14-14c0-1.3 .2-2.6 .5-3.9L32 256 .5 145.9c-.4-1.3-.5-2.6-.5-3.9c0-7.8 6.3-14 14-14l42 0c5 0 9.8 2.4 12.8 6.4L112 192l102.9-27.6C208 164.2 201.8 154 191.2 154l-56.2 0c-11.5 0-22.1 6.2-27.8 16.1L18.3 320l-6 0c-9.6 0-18.2-5.7-22-14.7s-1.7-19.3 5.3-26.2l83.2-83.2c4.2-4.2 6.6-10 6.6-16c0-12.6-10.2-22.8-22.8-22.8L68.8 192c-7.8 0-14-6.3-14-14s6.3-14 14-14l80 0c12.6 0 22.8-10.2 22.8-22.8c0-6-2.4-11.8-6.6-16L82.8 41.9c-7-7-8.4-17.9-3.4-26.7S92.1 0 104 0l80 0c11.5 0 22.1 6.2 27.8 16.1L312.3 192l170 0z"/>
</svg>